<?xml version="1.0" encoding="UTF-8" standalone="no"?>
<!-- Created with Inkscape (http://www.inkscape.org/) -->
<svg
   xmlns:dc="http://purl.org/dc/elements/1.1/"
   xmlns:cc="http://web.resource.org/cc/"
   xmlns:rdf="http://www.w3.org/1999/02/22-rdf-syntax-ns#"
   xmlns:svg="http://www.w3.org/2000/svg"
   xmlns="http://www.w3.org/2000/svg"
   xmlns:xlink="http://www.w3.org/1999/xlink"
   xmlns:sodipodi="http://sodipodi.sourceforge.net/DTD/sodipodi-0.dtd"
   xmlns:inkscape="http://www.inkscape.org/namespaces/inkscape"
   width="1052.3622"
   height="744.09448"
   id="svg2"
   sodipodi:version="0.32"
   inkscape:version="0.45.1"
   version="1.0"
   sodipodi:docbase="J:\Eigene Dateien\Eigene Bilder"
   sodipodi:docname="ansi-sparc.svg"
   inkscape:output_extension="org.inkscape.output.svg.inkscape">
  <defs
     id="defs4">
    <linearGradient
       id="linearGradient12185">
      <stop
         style="stop-color:#e5a407;stop-opacity:1;"
         offset="0"
         id="stop12187" />
      <stop
         style="stop-color:#fff92e;stop-opacity:1;"
         offset="1"
         id="stop12189" />
    </linearGradient>
    <marker
       inkscape:stockid="Dot_m"
       orient="auto"
       refY="0"
       refX="0"
       id="Dot_m"
       style="overflow:visible">
      <path
         id="path8119"
         d="M -2.5,-1 C -2.5,1.76 -4.74,4 -7.5,4 C -10.26,4 -12.5,1.76 -12.5,-1 C -12.5,-3.76 -10.26,-6 -7.5,-6 C -4.74,-6 -2.5,-3.76 -2.5,-1 z "
         style="fill-rule:evenodd;stroke:#000000;stroke-width:1pt;marker-start:none;marker-end:none"
         transform="matrix(0.4,0,0,0.4,2.96,0.4)" />
    </marker>
    <linearGradient
       inkscape:collect="always"
       xlink:href="#linearGradient12185"
       id="linearGradient16233"
       gradientUnits="userSpaceOnUse"
       x1="58.275375"
       y1="761.33392"
       x2="229.46812"
       y2="761.33392" />
    <linearGradient
       inkscape:collect="always"
       xlink:href="#linearGradient12185"
       id="linearGradient16237"
       gradientUnits="userSpaceOnUse"
       gradientTransform="matrix(0.4999502,0,0,0.4999502,39.060608,139.25925)"
       x1="56.962502"
       y1="856.54688"
       x2="229.47501"
       y2="856.54688" />
  </defs>
  <sodipodi:namedview
     id="base"
     pagecolor="#ffffff"
     bordercolor="#666666"
     borderopacity="1.0"
     inkscape:pageopacity="0.0"
     inkscape:pageshadow="2"
     inkscape:zoom="0.76109449"
     inkscape:cx="378.59376"
     inkscape:cy="400.96056"
     inkscape:document-units="px"
     inkscape:current-layer="layer1"
     showguides="true"
     inkscape:guide-bbox="true"
     width="1052.3622px"
     height="744.09448px"
     inkscape:window-width="1280"
     inkscape:window-height="934"
     inkscape:window-x="-4"
     inkscape:window-y="-4" />
  <metadata
     id="metadata7">
    <rdf:RDF>
      <cc:Work
         rdf:about="">
        <dc:format>image/svg+xml</dc:format>
        <dc:type
           rdf:resource="http://purl.org/dc/dcmitype/StillImage" />
      </cc:Work>
    </rdf:RDF>
  </metadata>
  <g
     inkscape:label="Ebene 1"
     inkscape:groupmode="layer"
     id="layer1">
    <rect
       style="opacity:1;fill:#b1ff7a;fill-opacity:1;fill-rule:nonzero;stroke:#000000;stroke-width:1.78098202;stroke-linecap:round;stroke-linejoin:miter;stroke-miterlimit:4;stroke-dasharray:none;stroke-dashoffset:0;stroke-opacity:1"
       id="rect2160"
       width="537.00317"
       height="109.85213"
       x="85.63488"
       y="68.819443"
       rx="2.8208938" />
    <path
       style="font-size:41.49869156px;font-style:normal;font-weight:normal;text-align:start;text-anchor:start;fill:#000000;fill-opacity:1;stroke:none;stroke-width:1px;stroke-linecap:butt;stroke-linejoin:miter;stroke-opacity:1;font-family:Arial"
       d="M 339.54053,128.62883 L 343.30945,129.09488 C 342.71505,131.29681 341.61409,133.00565 340.00658,134.22143 C 338.39903,135.43721 336.34571,136.0451 333.84661,136.0451 C 330.69908,136.0451 328.20335,135.07586 326.35942,133.13736 C 324.51548,131.19887 323.59352,128.48025 323.59352,124.98149 C 323.59352,121.36118 324.52562,118.55137 326.38982,116.55207 C 328.25401,114.5528 330.67206,113.55316 333.64398,113.55314 C 336.52132,113.55316 338.87183,114.53254 340.69552,116.49128 C 342.51917,118.45006 343.43101,121.20583 343.43103,124.7586 C 343.43101,124.97475 343.42425,125.29895 343.41077,125.73122 L 327.36244,125.73122 C 327.49752,128.09525 328.1662,129.90541 329.36848,131.16171 C 330.57075,132.41803 332.07021,133.04618 333.86688,133.04618 C 335.20422,133.04618 336.34571,132.69495 337.29133,131.9925 C 338.23692,131.29005 338.98665,130.16883 339.54053,128.62883 L 339.54053,128.62883 z M 327.56507,122.73229 L 339.58105,122.73229 C 339.41893,120.92214 338.95964,119.56452 338.20317,118.65942 C 337.0414,117.25454 335.53519,116.55209 333.68451,116.55207 C 332.00942,116.55209 330.60114,117.1127 329.45967,118.2339 C 328.31818,119.35514 327.68665,120.8546 327.56507,122.73229 L 327.56507,122.73229 z M 345.47759,135.55879 L 353.33965,124.3736 L 346.06522,114.03945 L 350.6244,114.03945 L 353.92728,119.08495 C 354.54867,120.04408 355.04849,120.84785 355.42674,121.49625 C 356.02111,120.60469 356.56822,119.81443 357.06805,119.12547 L 360.69513,114.03945 L 365.05168,114.03945 L 357.61515,124.17097 L 365.61905,135.55879 L 361.14092,135.55879 L 356.72358,128.87199 L 355.54832,127.06858 L 349.89494,135.55879 L 345.47759,135.55879 z M 376.62188,132.29644 L 377.14872,135.51827 C 376.12205,135.7344 375.20346,135.84247 374.39294,135.84247 C 373.06909,135.84247 372.04243,135.63309 371.31296,135.21432 C 370.58349,134.79555 370.07016,134.24507 369.77297,133.56288 C 369.47578,132.8807 369.32718,131.4454 369.32719,129.25699 L 369.32719,116.87628 L 366.65247,116.87628 L 366.65247,114.03945 L 369.32719,114.03945 L 369.32719,108.71027 L 372.95427,106.52187 L 372.95427,114.03945 L 376.62188,114.03945 L 376.62188,116.87628 L 372.95427,116.87628 L 372.95427,129.45962 C 372.95426,130.49979 373.01843,131.16847 373.14677,131.46566 C 373.27509,131.76285 373.48448,131.99926 373.77492,132.17487 C 374.06535,132.35048 374.48074,132.43829 375.0211,132.43829 C 375.42635,132.43829 375.95994,132.39101 376.62188,132.29644 L 376.62188,132.29644 z M 394.89913,128.62883 L 398.66805,129.09488 C 398.07365,131.29681 396.97269,133.00565 395.36518,134.22143 C 393.75763,135.43721 391.70431,136.0451 389.20522,136.0451 C 386.05769,136.0451 383.56196,135.07586 381.71803,133.13736 C 379.87409,131.19887 378.95212,128.48025 378.95212,124.98149 C 378.95212,121.36118 379.88422,118.55137 381.74842,116.55207 C 383.61261,114.5528 386.03067,113.55316 389.00259,113.55314 C 391.87992,113.55316 394.23043,114.53254 396.05412,116.49128 C 397.87778,118.45006 398.78961,121.20583 398.78963,124.7586 C 398.78961,124.97475 398.78286,125.29895 398.76937,125.73122 L 382.72105,125.73122 C 382.85613,128.09525 383.52481,129.90541 384.72709,131.16171 C 385.92935,132.41803 387.42882,133.04618 389.22548,133.04618 C 390.56283,133.04618 391.70431,132.69495 392.64993,131.9925 C 393.59553,131.29005 394.34526,130.16883 394.89913,128.62883 L 394.89913,128.62883 z M 382.92368,122.73229 L 394.93966,122.73229 C 394.77753,120.92214 394.31824,119.56452 393.56177,118.65942 C 392.40001,117.25454 390.89379,116.55209 389.04311,116.55207 C 387.36803,116.55209 385.95975,117.1127 384.81827,118.2339 C 383.67678,119.35514 383.04525,120.8546 382.92368,122.73229 L 382.92368,122.73229 z M 403.22724,135.55879 L 403.22724,114.03945 L 406.50985,114.03945 L 406.50985,117.3018 C 407.34738,115.77534 408.12076,114.76894 408.82997,114.28261 C 409.53917,113.79632 410.31929,113.55316 411.17035,113.55314 C 412.39963,113.55316 413.64918,113.94491 414.91901,114.72839 L 413.6627,118.11232 C 412.77112,117.5855 411.87954,117.32208 410.98798,117.32206 C 410.19096,117.32208 409.475,117.56186 408.8401,118.0414 C 408.20518,118.52098 407.75264,119.18628 407.48248,120.03731 C 407.07721,121.33416 406.87458,122.75257 406.87459,124.29255 L 406.87459,135.55879 L 403.22724,135.55879 z M 417.12768,135.55879 L 417.12768,114.03945 L 420.41029,114.03945 L 420.41029,117.09917 C 421.9908,114.73517 424.27376,113.55316 427.25919,113.55314 C 428.55601,113.55316 429.74815,113.78619 430.83562,114.25221 C 431.92305,114.71828 432.73695,115.32955 433.27731,116.08602 C 433.81764,116.84252 434.19588,117.74085 434.41204,118.781 C 434.54711,119.45645 434.61465,120.63846 434.61467,122.32703 L 434.61467,135.55879 L 430.96733,135.55879 L 430.96733,122.46887 C 430.96731,120.98293 430.82547,119.87184 430.5418,119.1356 C 430.25811,118.3994 429.75491,117.81177 429.03221,117.37272 C 428.30948,116.93371 427.46181,116.71419 426.4892,116.71417 C 424.93569,116.71419 423.59495,117.20726 422.46698,118.19337 C 421.339,119.17952 420.77502,121.05048 420.77502,123.80623 L 420.77502,135.55879 L 417.12768,135.55879 z M 454.95876,128.62883 L 458.72769,129.09488 C 458.13328,131.29681 457.03233,133.00565 455.42481,134.22143 C 453.81726,135.43721 451.76394,136.0451 449.26485,136.0451 C 446.11732,136.0451 443.62159,135.07586 441.77766,133.13736 C 439.93372,131.19887 439.01175,128.48025 439.01175,124.98149 C 439.01175,121.36118 439.94385,118.55137 441.80805,116.55207 C 443.67225,114.5528 446.0903,113.55316 449.06222,113.55314 C 451.93956,113.55316 454.29006,114.53254 456.11375,116.49128 C 457.93741,118.45006 458.84924,121.20583 458.84926,124.7586 C 458.84924,124.97475 458.84249,125.29895 458.829,125.73122 L 442.78068,125.73122 C 442.91576,128.09525 443.58444,129.90541 444.78672,131.16171 C 445.98898,132.41803 447.48845,133.04618 449.28511,133.04618 C 450.62246,133.04618 451.76394,132.69495 452.70957,131.9925 C 453.65516,131.29005 454.40489,130.16883 454.95876,128.62883 L 454.95876,128.62883 z M 442.98331,122.73229 L 454.99929,122.73229 C 454.83717,120.92214 454.37787,119.56452 453.6214,118.65942 C 452.45964,117.25454 450.95342,116.55209 449.10275,116.55207 C 447.42766,116.55209 446.01938,117.1127 444.8779,118.2339 C 443.73641,119.35514 443.10488,120.8546 442.98331,122.73229 L 442.98331,122.73229 z M 475.3839,135.55879 L 475.3839,105.85319 L 496.86271,105.85319 L 496.86271,109.35869 L 479.31493,109.35869 L 479.31493,118.45679 L 495.74825,118.45679 L 495.74825,121.94203 L 479.31493,121.94203 L 479.31493,132.05329 L 497.55166,132.05329 L 497.55166,135.55879 L 475.3839,135.55879 z M 505.92029,135.55879 L 502.53637,135.55879 L 502.53637,105.85319 L 506.18371,105.85319 L 506.18371,116.45075 C 507.7237,114.51903 509.68921,113.55316 512.08026,113.55314 C 513.40409,113.55316 514.65702,113.81996 515.83905,114.35353 C 517.02104,114.88714 517.99367,115.63687 518.75693,116.60273 C 519.52015,117.56861 520.11791,118.73374 520.5502,120.0981 C 520.98246,121.46249 521.1986,122.92143 521.19862,124.47491 C 521.1986,128.16279 520.28676,131.01312 518.46311,133.02591 C 516.63942,135.03871 514.45102,136.0451 511.89789,136.0451 C 509.35825,136.0451 507.36572,134.98467 505.92029,132.86381 L 505.92029,135.55879 z M 505.87977,124.63702 C 505.87976,127.21719 506.23099,129.08138 506.93345,130.22961 C 508.08168,132.10733 509.63517,133.04618 511.59394,133.04618 C 513.18796,133.04618 514.56584,132.35386 515.7276,130.96922 C 516.88933,129.58458 517.47021,127.52113 517.47022,124.77886 C 517.47021,121.96907 516.91297,119.89548 515.79852,118.55811 C 514.68404,117.22077 513.33655,116.55209 511.75605,116.55207 C 510.16201,116.55209 508.78413,117.24441 507.62239,118.62903 C 506.46064,120.01368 505.87976,122.01635 505.87977,124.63702 L 505.87977,124.63702 z M 540.38771,128.62883 L 544.15663,129.09488 C 543.56223,131.29681 542.46127,133.00565 540.85376,134.22143 C 539.24621,135.43721 537.19289,136.0451 534.6938,136.0451 C 531.54626,136.0451 529.05054,135.07586 527.20661,133.13736 C 525.36267,131.19887 524.4407,128.48025 524.4407,124.98149 C 524.4407,121.36118 525.3728,118.55137 527.237,116.55207 C 529.10119,114.5528 531.51925,113.55316 534.49117,113.55314 C 537.3685,113.55316 539.71901,114.53254 541.5427,116.49128 C 543.36635,118.45006 544.27819,121.20583 544.27821,124.7586 C 544.27819,124.97475 544.27144,125.29895 544.25795,125.73122 L 528.20963,125.73122 C 528.34471,128.09525 529.01339,129.90541 530.21567,131.16171 C 531.41793,132.41803 532.91739,133.04618 534.71406,133.04618 C 536.05141,133.04618 537.19289,132.69495 538.13851,131.9925 C 539.0841,131.29005 539.83384,130.16883 540.38771,128.62883 L 540.38771,128.62883 z M 528.41226,122.73229 L 540.42824,122.73229 C 540.26611,120.92214 539.80682,119.56452 539.05035,118.65942 C 537.88859,117.25454 536.38237,116.55209 534.53169,116.55207 C 532.85661,116.55209 531.44833,117.1127 530.30685,118.2339 C 529.16536,119.35514 528.53383,120.8546 528.41226,122.73229 L 528.41226,122.73229 z M 548.75634,135.55879 L 548.75634,114.03945 L 552.03895,114.03945 L 552.03895,117.09917 C 553.61946,114.73517 555.90242,113.55316 558.88785,113.55314 C 560.18467,113.55316 561.37681,113.78619 562.46428,114.25221 C 563.55171,114.71828 564.36561,115.32955 564.90597,116.08602 C 565.4463,116.84252 565.82455,117.74085 566.0407,118.781 C 566.17577,119.45645 566.24331,120.63846 566.24334,122.32703 L 566.24334,135.55879 L 562.59599,135.55879 L 562.59599,122.46887 C 562.59597,120.98293 562.45413,119.87184 562.17047,119.1356 C 561.88677,118.3994 561.38357,117.81177 560.66087,117.37272 C 559.93814,116.93371 559.09047,116.71419 558.11786,116.71417 C 556.56435,116.71419 555.22361,117.20726 554.09565,118.19337 C 552.96766,119.17952 552.40368,121.05048 552.40368,123.80623 L 552.40368,135.55879 L 548.75634,135.55879 z M 586.58742,128.62883 L 590.35634,129.09488 C 589.76194,131.29681 588.66098,133.00565 587.05347,134.22143 C 585.44592,135.43721 583.3926,136.0451 580.8935,136.0451 C 577.74597,136.0451 575.25024,135.07586 573.40631,133.13736 C 571.56237,131.19887 570.64041,128.48025 570.64041,124.98149 C 570.64041,121.36118 571.57251,118.55137 573.43671,116.55207 C 575.3009,114.5528 577.71895,113.55316 580.69087,113.55314 C 583.56821,113.55316 585.91872,114.53254 587.74241,116.49128 C 589.56606,118.45006 590.4779,121.20583 590.47792,124.7586 C 590.4779,124.97475 590.47114,125.29895 590.45766,125.73122 L 574.40933,125.73122 C 574.54441,128.09525 575.21309,129.90541 576.41537,131.16171 C 577.61764,132.41803 579.1171,133.04618 580.91377,133.04618 C 582.25111,133.04618 583.3926,132.69495 584.33822,131.9925 C 585.28381,131.29005 586.03354,130.16883 586.58742,128.62883 L 586.58742,128.62883 z M 574.61196,122.73229 L 586.62794,122.73229 C 586.46582,120.92214 586.00653,119.56452 585.25006,118.65942 C 584.08829,117.25454 582.58208,116.55209 580.7314,116.55207 C 579.05631,116.55209 577.64803,117.1127 576.50656,118.2339 C 575.36507,119.35514 574.73354,120.8546 574.61196,122.73229 L 574.61196,122.73229 z "
       id="text4103" />
    <g
       id="g7039"
       transform="matrix(2.1381853,2.4403098e-8,0,2.1381853,37.133583,4.962944)">
      <rect
         y="17.636364"
         x="5.818182"
         height="39.0909"
         width="50.363628"
         id="rect4115"
         style="opacity:1;fill:#ffffff;fill-opacity:1;fill-rule:nonzero;stroke:#000000;stroke-width:1;stroke-linecap:round;stroke-linejoin:miter;stroke-miterlimit:4;stroke-dasharray:none;stroke-dashoffset:0;stroke-opacity:1" />
      <rect
         rx="1.0750588"
         y="18.501535"
         x="6.1378989"
         height="5.9514751"
         width="49.906021"
         id="rect5086"
         style="opacity:1;fill:#000000;fill-opacity:1;fill-rule:nonzero;stroke:#000000;stroke-width:1.27579808;stroke-linecap:round;stroke-linejoin:miter;stroke-miterlimit:4;stroke-dasharray:none;stroke-dashoffset:0;stroke-opacity:1" />
      <rect
         rx="1.0750588"
         y="18.181818"
         x="50"
         height="5.818182"
         width="5.6363635"
         id="rect5088"
         style="opacity:1;fill:#ffffff;fill-opacity:1;fill-rule:nonzero;stroke:#000000;stroke-width:1;stroke-linecap:round;stroke-linejoin:miter;stroke-miterlimit:4;stroke-dasharray:none;stroke-dashoffset:0;stroke-opacity:1" />
      <rect
         rx="1.0750588"
         y="25.272728"
         x="52.363636"
         height="31.454542"
         width="3.8181684"
         id="rect5090"
         style="opacity:1;fill:#bebebe;fill-opacity:1;fill-rule:nonzero;stroke:#000000;stroke-width:1;stroke-linecap:round;stroke-linejoin:miter;stroke-miterlimit:4;stroke-dasharray:none;stroke-dashoffset:0;stroke-opacity:1" />
      <path
         id="text5092"
         d="M 51.272016,22.942642 L 52.633522,21.108091 L 51.4329,19.422418 L 51.987587,19.422418 L 52.626318,20.325286 C 52.759186,20.512585 52.853635,20.65666 52.909665,20.75751 C 52.988104,20.629446 53.080952,20.495776 53.18821,20.356502 L 53.896577,19.422418 L 54.403239,19.422418 L 53.166598,21.081678 L 54.499289,22.942642 L 53.922991,22.942642 L 53.036931,21.686791 C 52.987304,21.614755 52.936077,21.536315 52.883252,21.451469 C 52.804809,21.579537 52.74878,21.667583 52.715164,21.715606 L 51.831506,22.942642 L 51.272016,22.942642 z "
         style="font-size:4.91774893px;font-style:normal;font-weight:normal;text-align:center;text-anchor:middle;fill:#000000;fill-opacity:1;stroke:none;stroke-width:1px;stroke-linecap:butt;stroke-linejoin:miter;stroke-opacity:1;font-family:Arial" />
      <rect
         rx="1.0750588"
         y="47.272724"
         x="8.909091"
         height="6.7272725"
         width="16.363636"
         id="rect6065"
         style="opacity:1;fill:#bebebe;fill-opacity:1;fill-rule:nonzero;stroke:#000000;stroke-width:1;stroke-linecap:round;stroke-linejoin:miter;stroke-miterlimit:4;stroke-dasharray:none;stroke-dashoffset:0;stroke-opacity:1" />
      <rect
         y="28.545454"
         x="8.727272"
         height="7.2727275"
         width="40.545452"
         id="rect6067"
         style="opacity:1;fill:#ffffff;fill-opacity:1;fill-rule:nonzero;stroke:#808080;stroke-width:1;stroke-linecap:round;stroke-linejoin:miter;stroke-miterlimit:4;stroke-dasharray:none;stroke-dashoffset:0;stroke-opacity:1" />
    </g>
    <rect
       style="opacity:1;fill:#ffec7a;fill-opacity:1;fill-rule:nonzero;stroke:#000000;stroke-width:1.78098202;stroke-linecap:round;stroke-linejoin:miter;stroke-miterlimit:4;stroke-dasharray:none;stroke-dashoffset:0;stroke-opacity:1"
       id="rect8251"
       width="537.00317"
       height="109.85213"
       x="85.917343"
       y="310.79761"
       rx="2.8208938" />
    <path
       style="font-size:41.49869156px;font-style:normal;font-weight:normal;text-align:start;text-anchor:start;fill:#000000;fill-opacity:1;stroke:none;stroke-width:1px;stroke-linecap:butt;stroke-linejoin:miter;stroke-opacity:1;font-family:Arial"
       d="M 198.75371,379.50443 L 198.75371,349.79882 L 202.40106,349.79882 L 202.40106,366.73871 L 211.03311,357.98508 L 215.7544,357.98508 L 207.52761,365.96872 L 216.58518,379.50443 L 212.08679,379.50443 L 204.97446,368.5016 L 202.40106,370.97369 L 202.40106,379.50443 L 198.75371,379.50443 z M 218.12517,368.74475 C 218.12517,364.75971 219.23288,361.80806 221.44831,359.88981 C 223.29899,358.29581 225.55494,357.49879 228.21616,357.49877 C 231.17455,357.49879 233.5926,358.46804 235.47033,360.40652 C 237.34802,362.34503 238.28687,365.02313 238.28689,368.44081 C 238.28687,371.2101 237.87148,373.38837 237.04071,374.97564 C 236.20991,376.56291 235.00088,377.79558 233.41363,378.67364 C 231.82634,379.55171 230.09386,379.99074 228.21616,379.99074 C 225.20372,379.99074 222.76878,379.02487 220.91134,377.09312 C 219.05389,375.16139 218.12517,372.3786 218.12517,368.74475 L 218.12517,368.74475 z M 221.87383,368.74475 C 221.87383,371.50054 222.47496,373.56399 223.67724,374.93511 C 224.87951,376.30625 226.39248,376.99181 228.21616,376.99181 C 230.02631,376.99181 231.53253,376.30287 232.73482,374.92498 C 233.93707,373.5471 234.53821,371.4465 234.53823,368.62318 C 234.53821,365.96198 233.9337,363.94581 232.72469,362.57466 C 231.51564,361.20355 230.0128,360.51798 228.21616,360.51796 C 226.39248,360.51798 224.87951,361.20017 223.67724,362.56453 C 222.47496,363.92892 221.87383,365.989 221.87383,368.74475 L 221.87383,368.74475 z M 242.58265,379.50443 L 242.58265,357.98508 L 245.86527,357.98508 L 245.86527,361.0448 C 247.44577,358.6808 249.72874,357.49879 252.71417,357.49877 C 254.01099,357.49879 255.20313,357.73182 256.2906,358.19785 C 257.37803,358.66392 258.19193,359.27518 258.73229,360.03165 C 259.27262,360.78816 259.65086,361.68648 259.86702,362.72663 C 260.00209,363.40208 260.06963,364.58409 260.06965,366.27266 L 260.06965,379.50443 L 256.42231,379.50443 L 256.42231,366.41451 C 256.42229,364.92856 256.28045,363.81748 255.99678,363.08124 C 255.71308,362.34503 255.20989,361.7574 254.48719,361.31835 C 253.76446,360.87934 252.91679,360.65982 251.94418,360.6598 C 250.39067,360.65982 249.04993,361.15289 247.92196,362.13901 C 246.79398,363.12516 246.22999,364.99611 246.23,367.75187 L 246.23,379.50443 L 242.58265,379.50443 z M 263.75752,379.50443 L 263.75752,376.54602 L 277.45533,360.82191 C 275.90182,360.90298 274.53069,360.94351 273.34193,360.94349 L 264.56804,360.94349 L 264.56804,357.98508 L 282.15635,357.98508 L 282.15635,360.39638 L 270.50511,374.05367 L 268.25591,376.54602 C 269.89046,376.42445 271.42369,376.36366 272.85562,376.36365 L 282.80477,376.36365 L 282.80477,379.50443 L 263.75752,379.50443 z M 301.16308,372.57447 L 304.93201,373.04052 C 304.33761,375.24244 303.23665,376.95129 301.62913,378.16706 C 300.02158,379.38285 297.96827,379.99074 295.46917,379.99074 C 292.32164,379.99074 289.82591,379.02149 287.98198,377.08299 C 286.13804,375.1445 285.21608,372.42588 285.21608,368.92712 C 285.21608,365.30681 286.14817,362.497 288.01238,360.4977 C 289.87657,358.49844 292.29462,357.49879 295.26654,357.49877 C 298.14388,357.49879 300.49439,358.47817 302.31808,360.43691 C 304.14173,362.39569 305.05357,365.15146 305.05359,368.70423 C 305.05357,368.92038 305.04681,369.24459 305.03332,369.67685 L 288.985,369.67685 C 289.12008,372.04088 289.78876,373.85104 290.99104,375.10735 C 292.19331,376.36366 293.69277,376.99181 295.48944,376.99181 C 296.82678,376.99181 297.96827,376.64059 298.91389,375.93813 C 299.85948,375.23568 300.60921,374.11446 301.16308,372.57447 L 301.16308,372.57447 z M 289.18763,366.67793 L 301.20361,366.67793 C 301.04149,364.86778 300.58219,363.51015 299.82572,362.60506 C 298.66396,361.20017 297.15774,360.49772 295.30707,360.4977 C 293.63198,360.49772 292.2237,361.05833 291.08223,362.17953 C 289.94074,363.30077 289.3092,364.80023 289.18763,366.67793 L 289.18763,366.67793 z M 309.53171,387.75148 L 309.53171,357.98508 L 312.85485,357.98508 L 312.85485,360.78138 C 313.63835,359.6872 314.52317,358.86655 315.50931,358.31942 C 316.49543,357.77234 317.69095,357.49879 319.09586,357.49877 C 320.93303,357.49879 322.55407,357.9716 323.95899,358.91718 C 325.36388,359.86281 326.42431,361.19679 327.14029,362.91913 C 327.85623,364.64151 328.21421,366.52934 328.21423,368.58265 C 328.21421,370.78458 327.81908,372.76697 327.02884,374.52985 C 326.23856,376.29274 325.09033,377.64361 323.58413,378.58246 C 322.07789,379.52131 320.494,379.99074 318.83245,379.99074 C 317.61665,379.99074 316.52583,379.73407 315.55997,379.22074 C 314.59409,378.70741 313.80045,378.059 313.17906,377.27549 L 313.17906,387.75148 L 309.53171,387.75148 z M 312.83459,368.86633 C 312.83458,371.63562 313.39519,373.68219 314.51642,375.00603 C 315.63763,376.32989 316.99525,376.99181 318.58929,376.99181 C 320.21032,376.99181 321.59833,376.30625 322.75334,374.93511 C 323.90832,373.56399 324.48581,371.43975 324.48583,368.56239 C 324.48581,365.82014 323.92183,363.76682 322.79387,362.40243 C 321.66588,361.03807 320.31839,360.35588 318.75139,360.35586 C 317.19788,360.35588 315.82338,361.08197 314.62787,362.53413 C 313.43234,363.98633 312.83458,366.09706 312.83459,368.86633 L 312.83459,368.86633 z M 340.59494,376.24208 L 341.12178,379.4639 C 340.09511,379.68004 339.17652,379.78811 338.366,379.78811 C 337.04215,379.78811 336.01549,379.57872 335.28602,379.15995 C 334.55655,378.74118 334.04322,378.19071 333.74603,377.50852 C 333.44884,376.82633 333.30024,375.39103 333.30025,373.20262 L 333.30025,360.82191 L 330.62553,360.82191 L 330.62553,357.98508 L 333.30025,357.98508 L 333.30025,352.65591 L 336.92733,350.4675 L 336.92733,357.98508 L 340.59494,357.98508 L 340.59494,360.82191 L 336.92733,360.82191 L 336.92733,373.40525 C 336.92732,374.44543 336.99149,375.11411 337.11983,375.41129 C 337.24815,375.70849 337.45754,375.94489 337.74798,376.1205 C 338.03841,376.29611 338.4538,376.38392 338.99416,376.38392 C 339.39941,376.38392 339.933,376.33664 340.59494,376.24208 L 340.59494,376.24208 z M 344.16123,353.99327 L 344.16123,349.79882 L 347.80857,349.79882 L 347.80857,353.99327 L 344.16123,353.99327 z M 344.16123,379.50443 L 344.16123,357.98508 L 347.80857,357.98508 L 347.80857,379.50443 L 344.16123,379.50443 z M 352.02329,368.74475 C 352.02329,364.75971 353.131,361.80806 355.34642,359.88981 C 357.19711,358.29581 359.45306,357.49879 362.11428,357.49877 C 365.07267,357.49879 367.49072,358.46804 369.36844,360.40652 C 371.24613,362.34503 372.18498,365.02313 372.18501,368.44081 C 372.18498,371.2101 371.76959,373.38837 370.93883,374.97564 C 370.10802,376.56291 368.899,377.79558 367.31175,378.67364 C 365.72446,379.55171 363.99197,379.99074 362.11428,379.99074 C 359.10183,379.99074 356.66689,379.02487 354.80945,377.09312 C 352.95201,375.16139 352.02329,372.3786 352.02329,368.74475 L 352.02329,368.74475 z M 355.77195,368.74475 C 355.77194,371.50054 356.37308,373.56399 357.57536,374.93511 C 358.77762,376.30625 360.2906,376.99181 362.11428,376.99181 C 363.92443,376.99181 365.43065,376.30287 366.63293,374.92498 C 367.83519,373.5471 368.43633,371.4465 368.43634,368.62318 C 368.43633,365.96198 367.83181,363.94581 366.6228,362.57466 C 365.41376,361.20355 363.91092,360.51798 362.11428,360.51796 C 360.2906,360.51798 358.77762,361.20017 357.57536,362.56453 C 356.37308,363.92892 355.77194,365.989 355.77195,368.74475 L 355.77195,368.74475 z M 376.48078,379.50443 L 376.48078,357.98508 L 379.76339,357.98508 L 379.76339,361.0448 C 381.3439,358.6808 383.62687,357.49879 386.6123,357.49877 C 387.90912,357.49879 389.10126,357.73182 390.18872,358.19785 C 391.27615,358.66392 392.09005,359.27518 392.63042,360.03165 C 393.17074,360.78816 393.54899,361.68648 393.76515,362.72663 C 393.90021,363.40208 393.96776,364.58409 393.96778,366.27266 L 393.96778,379.50443 L 390.32043,379.50443 L 390.32043,366.41451 C 390.32041,364.92856 390.17857,363.81748 389.89491,363.08124 C 389.61121,362.34503 389.10801,361.7574 388.38531,361.31835 C 387.66258,360.87934 386.81491,360.65982 385.8423,360.6598 C 384.28879,360.65982 382.94805,361.15289 381.82009,362.13901 C 380.69211,363.12516 380.12812,364.99611 380.12813,367.75187 L 380.12813,379.50443 L 376.48078,379.50443 z M 414.31186,372.57447 L 418.08078,373.04052 C 417.48638,375.24244 416.38542,376.95129 414.77791,378.16706 C 413.17036,379.38285 411.11704,379.99074 408.61795,379.99074 C 405.47041,379.99074 402.97468,379.02149 401.13075,377.08299 C 399.28682,375.1445 398.36485,372.42588 398.36485,368.92712 C 398.36485,365.30681 399.29695,362.497 401.16115,360.4977 C 403.02534,358.49844 405.4434,357.49879 408.41532,357.49877 C 411.29265,357.49879 413.64316,358.47817 415.46685,360.43691 C 417.2905,362.39569 418.20234,365.15146 418.20236,368.70423 C 418.20234,368.92038 418.19558,369.24459 418.1821,369.67685 L 402.13377,369.67685 C 402.26886,372.04088 402.93754,373.85104 404.13982,375.10735 C 405.34208,376.36366 406.84154,376.99181 408.63821,376.99181 C 409.97556,376.99181 411.11704,376.64059 412.06266,375.93813 C 413.00825,375.23568 413.75798,374.11446 414.31186,372.57447 L 414.31186,372.57447 z M 402.33641,366.67793 L 414.35238,366.67793 C 414.19026,364.86778 413.73097,363.51015 412.9745,362.60506 C 411.81274,361.20017 410.30652,360.49772 408.45584,360.4977 C 406.78075,360.49772 405.37247,361.05833 404.231,362.17953 C 403.08951,363.30077 402.45798,364.80023 402.33641,366.67793 L 402.33641,366.67793 z M 422.59943,379.50443 L 422.59943,349.79882 L 426.24678,349.79882 L 426.24678,379.50443 L 422.59943,379.50443 z M 431.83938,379.50443 L 431.83938,349.79882 L 435.48672,349.79882 L 435.48672,379.50443 L 431.83938,379.50443 z M 455.8916,372.57447 L 459.66052,373.04052 C 459.06612,375.24244 457.96516,376.95129 456.35765,378.16706 C 454.7501,379.38285 452.69678,379.99074 450.19769,379.99074 C 447.05015,379.99074 444.55443,379.02149 442.7105,377.08299 C 440.86656,375.1445 439.94459,372.42588 439.94459,368.92712 C 439.94459,365.30681 440.87669,362.497 442.74089,360.4977 C 444.60508,358.49844 447.02314,357.49879 449.99506,357.49877 C 452.87239,357.49879 455.2229,358.47817 457.04659,360.43691 C 458.87025,362.39569 459.78208,365.15146 459.7821,368.70423 C 459.78208,368.92038 459.77533,369.24459 459.76184,369.67685 L 443.71352,369.67685 C 443.8486,372.04088 444.51728,373.85104 445.71956,375.10735 C 446.92182,376.36366 448.42129,376.99181 450.21795,376.99181 C 451.5553,376.99181 452.69678,376.64059 453.6424,375.93813 C 454.588,375.23568 455.33773,374.11446 455.8916,372.57447 L 455.8916,372.57447 z M 443.91615,366.67793 L 455.93213,366.67793 C 455.77,364.86778 455.31071,363.51015 454.55424,362.60506 C 453.39248,361.20017 451.88626,360.49772 450.03558,360.4977 C 448.3605,360.49772 446.95222,361.05833 445.81074,362.17953 C 444.66925,363.30077 444.03772,364.80023 443.91615,366.67793 L 443.91615,366.67793 z M 476.31675,379.50443 L 476.31675,349.79882 L 497.79556,349.79882 L 497.79556,353.30432 L 480.24777,353.30432 L 480.24777,362.40243 L 496.68109,362.40243 L 496.68109,365.88767 L 480.24777,365.88767 L 480.24777,375.99892 L 498.4845,375.99892 L 498.4845,379.50443 L 476.31675,379.50443 z M 506.85312,379.50443 L 503.4692,379.50443 L 503.4692,349.79882 L 507.11654,349.79882 L 507.11654,360.39638 C 508.65653,358.46466 510.62204,357.49879 513.01309,357.49877 C 514.33692,357.49879 515.58985,357.76559 516.77188,358.29916 C 517.95387,358.83277 518.9265,359.58251 519.68976,360.54836 C 520.45298,361.51425 521.05074,362.67937 521.48303,364.04373 C 521.91529,365.40812 522.13143,366.86706 522.13145,368.42055 C 522.13143,372.10843 521.21959,374.95876 519.39594,376.97155 C 517.57225,378.98434 515.38385,379.99074 512.83072,379.99074 C 510.29108,379.99074 508.29855,378.93031 506.85312,376.80944 L 506.85312,379.50443 z M 506.8126,368.58265 C 506.81259,371.16282 507.16382,373.02702 507.86628,374.17525 C 509.01451,376.05296 510.568,376.99181 512.52677,376.99181 C 514.12079,376.99181 515.49867,376.29949 516.66043,374.91485 C 517.82216,373.53021 518.40304,371.46676 518.40305,368.72449 C 518.40304,365.9147 517.8458,363.84112 516.73135,362.50374 C 515.61687,361.1664 514.26938,360.49772 512.68888,360.4977 C 511.09484,360.49772 509.71696,361.19004 508.55522,362.57466 C 507.39347,363.95932 506.81259,365.96198 506.8126,368.58265 L 506.8126,368.58265 z M 541.32054,372.57447 L 545.08946,373.04052 C 544.49506,375.24244 543.3941,376.95129 541.78659,378.16706 C 540.17904,379.38285 538.12572,379.99074 535.62663,379.99074 C 532.47909,379.99074 529.98337,379.02149 528.13944,377.08299 C 526.2955,375.1445 525.37353,372.42588 525.37353,368.92712 C 525.37353,365.30681 526.30563,362.497 528.16983,360.4977 C 530.03402,358.49844 532.45208,357.49879 535.424,357.49877 C 538.30133,357.49879 540.65184,358.47817 542.47553,360.43691 C 544.29919,362.39569 545.21102,365.15146 545.21104,368.70423 C 545.21102,368.92038 545.20427,369.24459 545.19078,369.67685 L 529.14246,369.67685 C 529.27754,372.04088 529.94622,373.85104 531.1485,375.10735 C 532.35076,376.36366 533.85023,376.99181 535.64689,376.99181 C 536.98424,376.99181 538.12572,376.64059 539.07134,375.93813 C 540.01694,375.23568 540.76667,374.11446 541.32054,372.57447 L 541.32054,372.57447 z M 529.34509,366.67793 L 541.36107,366.67793 C 541.19894,364.86778 540.73965,363.51015 539.98318,362.60506 C 538.82142,361.20017 537.3152,360.49772 535.46452,360.4977 C 533.78944,360.49772 532.38116,361.05833 531.23968,362.17953 C 530.09819,363.30077 529.46666,364.80023 529.34509,366.67793 L 529.34509,366.67793 z M 549.68917,379.50443 L 549.68917,357.98508 L 552.97178,357.98508 L 552.97178,361.0448 C 554.55229,358.6808 556.83525,357.49879 559.82069,357.49877 C 561.1175,357.49879 562.30965,357.73182 563.39711,358.19785 C 564.48454,358.66392 565.29844,359.27518 565.83881,360.03165 C 566.37913,360.78816 566.75738,361.68648 566.97354,362.72663 C 567.1086,363.40208 567.17615,364.58409 567.17617,366.27266 L 567.17617,379.50443 L 563.52882,379.50443 L 563.52882,366.41451 C 563.5288,364.92856 563.38696,363.81748 563.1033,363.08124 C 562.8196,362.34503 562.3164,361.7574 561.5937,361.31835 C 560.87097,360.87934 560.0233,360.65982 559.05069,360.6598 C 557.49718,360.65982 556.15644,361.15289 555.02848,362.13901 C 553.9005,363.12516 553.33651,364.99611 553.33651,367.75187 L 553.33651,379.50443 L 549.68917,379.50443 z M 587.52025,372.57447 L 591.28917,373.04052 C 590.69477,375.24244 589.59381,376.95129 587.9863,378.16706 C 586.37875,379.38285 584.32543,379.99074 581.82633,379.99074 C 578.6788,379.99074 576.18307,379.02149 574.33914,377.08299 C 572.49521,375.1445 571.57324,372.42588 571.57324,368.92712 C 571.57324,365.30681 572.50534,362.497 574.36954,360.4977 C 576.23373,358.49844 578.65178,357.49879 581.6237,357.49877 C 584.50104,357.49879 586.85155,358.47817 588.67524,360.43691 C 590.49889,362.39569 591.41073,365.15146 591.41075,368.70423 C 591.41073,368.92038 591.40397,369.24459 591.39049,369.67685 L 575.34216,369.67685 C 575.47725,372.04088 576.14593,373.85104 577.3482,375.10735 C 578.55047,376.36366 580.04993,376.99181 581.8466,376.99181 C 583.18394,376.99181 584.32543,376.64059 585.27105,375.93813 C 586.21664,375.23568 586.96637,374.11446 587.52025,372.57447 L 587.52025,372.57447 z M 575.54479,366.67793 L 587.56077,366.67793 C 587.39865,364.86778 586.93936,363.51015 586.18289,362.60506 C 585.02112,361.20017 583.51491,360.49772 581.66423,360.4977 C 579.98914,360.49772 578.58086,361.05833 577.43939,362.17953 C 576.2979,363.30077 575.66637,364.80023 575.54479,366.67793 L 575.54479,366.67793 z "
       id="text8253" />
    <g
       id="g8259"
       transform="matrix(2.4876916,0,0,2.4876916,45.350014,227.32173)"
       style="fill:none;fill-opacity:1">
      <path
         id="path7074"
         d="M 7.4001023,22.01516 L 7.2667644,53.149562 L 30.467561,53.149562 L 30.467561,39.815771 L 20.333879,39.815771 L 20.333879,30.748793 L 45.134732,30.748793"
         style="fill:none;fill-opacity:1;fill-rule:evenodd;stroke:#000000;stroke-width:0.7333585px;stroke-linecap:butt;stroke-linejoin:miter;marker-start:url(#Dot_m);marker-end:url(#Dot_m);stroke-opacity:1" />
      <path
         id="path7076"
         d="M 26.800768,44.015916 L 15.80039,44.015916 L 15.80039,44.015916 L 15.80039,44.015916 L 15.80039,17.815015"
         style="fill:none;fill-opacity:1;fill-rule:evenodd;stroke:#000000;stroke-width:0.7333585px;stroke-linecap:butt;stroke-linejoin:miter;marker-start:url(#Dot_m);marker-end:url(#Dot_m);stroke-opacity:1" />
      <path
         id="path7078"
         d="M 27.133976,25.136497 L 27.133976,17.802912 L 19.80039,17.802912"
         style="fill:none;fill-opacity:1;fill-rule:evenodd;stroke:#000000;stroke-width:0.7333585px;stroke-linecap:butt;stroke-linejoin:miter;marker-start:url(#Dot_m);marker-end:url(#Dot_m);stroke-opacity:1" />
      <path
         id="path7080"
         d="M 26.800768,34.882269 L 42.467973,34.882269 L 42.467973,53.416239 L 37.401132,58.683086"
         style="fill:none;fill-opacity:1;fill-rule:evenodd;stroke:#000000;stroke-width:0.7333585px;stroke-linecap:butt;stroke-linejoin:miter;marker-start:url(#Dot_m);marker-end:url(#Dot_m);stroke-opacity:1" />
    </g>
    <rect
       rx="2.8208938"
       y="550.79761"
       x="85.917343"
       height="109.85213"
       width="537.00317"
       id="rect8274"
       style="opacity:1;fill:#7affa9;fill-opacity:1;fill-rule:nonzero;stroke:#000000;stroke-width:1.78098202;stroke-linecap:round;stroke-linejoin:miter;stroke-miterlimit:4;stroke-dasharray:none;stroke-dashoffset:0;stroke-opacity:1" />
    <path
       style="font-size:41.49869156px;font-style:normal;font-weight:normal;text-align:start;text-anchor:start;fill:#000000;fill-opacity:1;stroke:none;stroke-width:1px;stroke-linecap:butt;stroke-linejoin:miter;stroke-opacity:1;font-family:Arial"
       d="M 334.7537,591.99324 L 334.7537,587.79879 L 338.40104,587.79879 L 338.40104,591.99324 L 334.7537,591.99324 z M 334.7537,617.50439 L 334.7537,595.98505 L 338.40104,595.98505 L 338.40104,617.50439 L 334.7537,617.50439 z M 343.97338,617.50439 L 343.97338,595.98505 L 347.25599,595.98505 L 347.25599,599.04477 C 348.8365,596.68077 351.11946,595.49876 354.10489,595.49874 C 355.40171,595.49876 356.59385,595.73179 357.68132,596.19782 C 358.76875,596.66389 359.58265,597.27515 360.12302,598.03162 C 360.66334,598.78813 361.04159,599.68645 361.25774,600.7266 C 361.39281,601.40205 361.46036,602.58406 361.46038,604.27263 L 361.46038,617.50439 L 357.81303,617.50439 L 357.81303,604.41448 C 357.81301,602.92853 357.67117,601.81745 357.38751,601.08121 C 357.10381,600.345 356.60061,599.75737 355.87791,599.31832 C 355.15518,598.87931 354.30751,598.65979 353.3349,598.65977 C 351.78139,598.65979 350.44065,599.15286 349.31269,600.13898 C 348.1847,601.12513 347.62072,602.99608 347.62072,605.75184 L 347.62072,617.50439 L 343.97338,617.50439 z M 375.03661,614.24205 L 375.56345,617.46387 C 374.53678,617.68001 373.61819,617.78808 372.80767,617.78808 C 371.48382,617.78808 370.45716,617.57869 369.72769,617.15992 C 368.99822,616.74115 368.48489,616.19068 368.1877,615.50849 C 367.89051,614.8263 367.74191,613.391 367.74192,611.20259 L 367.74192,598.82188 L 365.0672,598.82188 L 365.0672,595.98505 L 367.74192,595.98505 L 367.74192,590.65588 L 371.369,588.46747 L 371.369,595.98505 L 375.03661,595.98505 L 375.03661,598.82188 L 371.369,598.82188 L 371.369,611.40522 C 371.36899,612.4454 371.43316,613.11408 371.5615,613.41126 C 371.68982,613.70846 371.89921,613.94486 372.18965,614.12047 C 372.48008,614.29608 372.89547,614.38389 373.43583,614.38389 C 373.84108,614.38389 374.37467,614.33661 375.03661,614.24205 L 375.03661,614.24205 z M 393.31386,610.57444 L 397.08279,611.04049 C 396.48839,613.24241 395.38743,614.95125 393.77991,616.16703 C 392.17236,617.38282 390.11905,617.99071 387.61995,617.99071 C 384.47242,617.99071 381.97669,617.02146 380.13276,615.08296 C 378.28882,613.14447 377.36686,610.42585 377.36686,606.92709 C 377.36686,603.30678 378.29895,600.49697 380.16316,598.49767 C 382.02735,596.4984 384.4454,595.49876 387.41732,595.49874 C 390.29466,595.49876 392.64517,596.47814 394.46886,598.43688 C 396.29251,600.39566 397.20435,603.15143 397.20437,606.7042 C 397.20435,606.92035 397.19759,607.24456 397.1841,607.67682 L 381.13578,607.67682 C 381.27086,610.04085 381.93954,611.85101 383.14182,613.10732 C 384.34409,614.36363 385.84355,614.99178 387.64022,614.99178 C 388.97756,614.99178 390.11905,614.64056 391.06467,613.9381 C 392.01026,613.23565 392.75999,612.11443 393.31386,610.57444 L 393.31386,610.57444 z M 381.33841,604.67789 L 393.35439,604.67789 C 393.19227,602.86775 392.73297,601.51012 391.9765,600.60503 C 390.81474,599.20014 389.30852,598.49769 387.45785,598.49767 C 385.78276,598.49769 384.37448,599.0583 383.23301,600.1795 C 382.09151,601.30074 381.45998,602.8002 381.33841,604.67789 L 381.33841,604.67789 z M 401.64197,617.50439 L 401.64197,595.98505 L 404.92458,595.98505 L 404.92458,599.2474 C 405.76211,597.72094 406.53548,596.71454 407.2447,596.22821 C 407.95389,595.74192 408.73402,595.49876 409.58508,595.49874 C 410.81435,595.49876 412.06391,595.89051 413.33374,596.674 L 412.07743,600.05792 C 411.18584,599.5311 410.29427,599.26768 409.40271,599.26766 C 408.60569,599.26768 407.88973,599.50746 407.25483,599.987 C 406.61991,600.46658 406.16737,601.13188 405.8972,601.98291 C 405.49194,603.27976 405.28931,604.69817 405.28931,606.23815 L 405.28931,617.50439 L 401.64197,617.50439 z M 415.54241,617.50439 L 415.54241,595.98505 L 418.82502,595.98505 L 418.82502,599.04477 C 420.40553,596.68077 422.6885,595.49876 425.67393,595.49874 C 426.97075,595.49876 428.16289,595.73179 429.25035,596.19782 C 430.33778,596.66389 431.15168,597.27515 431.69205,598.03162 C 432.23237,598.78813 432.61062,599.68645 432.82678,600.7266 C 432.96184,601.40205 433.02939,602.58406 433.02941,604.27263 L 433.02941,617.50439 L 429.38206,617.50439 L 429.38206,604.41448 C 429.38204,602.92853 429.2402,601.81745 428.95654,601.08121 C 428.67284,600.345 428.16964,599.75737 427.44694,599.31832 C 426.72421,598.87931 425.87654,598.65979 424.90393,598.65977 C 423.35042,598.65979 422.00968,599.15286 420.88172,600.13898 C 419.75374,601.12513 419.18975,602.99608 419.18976,605.75184 L 419.18976,617.50439 L 415.54241,617.50439 z M 453.37349,610.57444 L 457.14241,611.04049 C 456.54801,613.24241 455.44705,614.95125 453.83954,616.16703 C 452.23199,617.38282 450.17867,617.99071 447.67958,617.99071 C 444.53204,617.99071 442.03631,617.02146 440.19239,615.08296 C 438.34845,613.14447 437.42648,610.42585 437.42648,606.92709 C 437.42648,603.30678 438.35858,600.49697 440.22278,598.49767 C 442.08697,596.4984 444.50503,595.49876 447.47695,595.49874 C 450.35428,595.49876 452.70479,596.47814 454.52848,598.43688 C 456.35213,600.39566 457.26397,603.15143 457.26399,606.7042 C 457.26397,606.92035 457.25721,607.24456 457.24373,607.67682 L 441.19541,607.67682 C 441.33049,610.04085 441.99917,611.85101 443.20145,613.10732 C 444.40371,614.36363 445.90317,614.99178 447.69984,614.99178 C 449.03719,614.99178 450.17867,614.64056 451.12429,613.9381 C 452.06988,613.23565 452.81961,612.11443 453.37349,610.57444 L 453.37349,610.57444 z M 441.39804,604.67789 L 453.41401,604.67789 C 453.25189,602.86775 452.7926,601.51012 452.03613,600.60503 C 450.87437,599.20014 449.36815,598.49769 447.51747,598.49767 C 445.84238,598.49769 444.4341,599.0583 443.29263,600.1795 C 442.15114,601.30074 441.51961,602.8002 441.39804,604.67789 L 441.39804,604.67789 z M 473.79863,617.50439 L 473.79863,587.79879 L 495.27745,587.79879 L 495.27745,591.30429 L 477.72966,591.30429 L 477.72966,600.40239 L 494.16298,600.40239 L 494.16298,603.88764 L 477.72966,603.88764 L 477.72966,613.99889 L 495.96639,613.99889 L 495.96639,617.50439 L 473.79863,617.50439 z M 504.33501,617.50439 L 500.95109,617.50439 L 500.95109,587.79879 L 504.59843,587.79879 L 504.59843,598.39635 C 506.13841,596.46463 508.10393,595.49876 510.49497,595.49874 C 511.81881,595.49876 513.07174,595.76556 514.25377,596.29913 C 515.43576,596.83274 516.40839,597.58248 517.17164,598.54833 C 517.93487,599.51422 518.53262,600.67934 518.96492,602.0437 C 519.39718,603.40809 519.61332,604.86703 519.61334,606.42052 C 519.61332,610.10839 518.70148,612.95873 516.87783,614.97152 C 515.05414,616.98431 512.86574,617.99071 510.31261,617.99071 C 507.77296,617.99071 505.78043,616.93028 504.33501,614.80941 L 504.33501,617.50439 z M 504.29449,606.58262 C 504.29448,609.16279 504.64571,611.02698 505.34816,612.17522 C 506.49639,614.05293 508.04989,614.99178 510.00866,614.99178 C 511.60267,614.99178 512.98056,614.29946 514.14232,612.91482 C 515.30405,611.53018 515.88492,609.46673 515.88494,606.72446 C 515.88492,603.91467 515.32769,601.84109 514.21324,600.50371 C 513.09876,599.16637 511.75127,598.49769 510.17077,598.49767 C 508.57673,598.49769 507.19885,599.19001 506.03711,600.57463 C 504.87535,601.95929 504.29448,603.96195 504.29449,606.58262 L 504.29449,606.58262 z M 538.80244,610.57444 L 542.57137,611.04049 C 541.97696,613.24241 540.87601,614.95125 539.26849,616.16703 C 537.66094,617.38282 535.60762,617.99071 533.10853,617.99071 C 529.961,617.99071 527.46527,617.02146 525.62134,615.08296 C 523.7774,613.14447 522.85543,610.42585 522.85544,606.92709 C 522.85543,603.30678 523.78753,600.49697 525.65173,598.49767 C 527.51593,596.4984 529.93398,595.49876 532.9059,595.49874 C 535.78324,595.49876 538.13375,596.47814 539.95744,598.43688 C 541.78109,600.39566 542.69292,603.15143 542.69295,606.7042 C 542.69292,606.92035 542.68617,607.24456 542.67268,607.67682 L 526.62436,607.67682 C 526.75944,610.04085 527.42812,611.85101 528.6304,613.10732 C 529.83267,614.36363 531.33213,614.99178 533.12879,614.99178 C 534.46614,614.99178 535.60762,614.64056 536.55325,613.9381 C 537.49884,613.23565 538.24857,612.11443 538.80244,610.57444 L 538.80244,610.57444 z M 526.82699,604.67789 L 538.84297,604.67789 C 538.68085,602.86775 538.22155,601.51012 537.46508,600.60503 C 536.30332,599.20014 534.7971,598.49769 532.94643,598.49767 C 531.27134,598.49769 529.86306,599.0583 528.72158,600.1795 C 527.58009,601.30074 526.94856,602.8002 526.82699,604.67789 L 526.82699,604.67789 z M 547.17107,617.50439 L 547.17107,595.98505 L 550.45368,595.98505 L 550.45368,599.04477 C 552.03419,596.68077 554.31716,595.49876 557.30259,595.49874 C 558.59941,595.49876 559.79155,595.73179 560.87901,596.19782 C 561.96645,596.66389 562.78034,597.27515 563.32071,598.03162 C 563.86104,598.78813 564.23928,599.68645 564.45544,600.7266 C 564.59051,601.40205 564.65805,602.58406 564.65807,604.27263 L 564.65807,617.50439 L 561.01072,617.50439 L 561.01072,604.41448 C 561.01071,602.92853 560.86887,601.81745 560.5852,601.08121 C 560.3015,600.345 559.7983,599.75737 559.0756,599.31832 C 558.35287,598.87931 557.50521,598.65979 556.53259,598.65977 C 554.97908,598.65979 553.63835,599.15286 552.51038,600.13898 C 551.3824,601.12513 550.81841,602.99608 550.81842,605.75184 L 550.81842,617.50439 L 547.17107,617.50439 z M 585.00215,610.57444 L 588.77107,611.04049 C 588.17667,613.24241 587.07571,614.95125 585.4682,616.16703 C 583.86065,617.38282 581.80733,617.99071 579.30824,617.99071 C 576.1607,617.99071 573.66498,617.02146 571.82105,615.08296 C 569.97711,613.14447 569.05514,610.42585 569.05514,606.92709 C 569.05514,603.30678 569.98724,600.49697 571.85144,598.49767 C 573.71563,596.4984 576.13369,595.49876 579.10561,595.49874 C 581.98294,595.49876 584.33345,596.47814 586.15714,598.43688 C 587.9808,600.39566 588.89263,603.15143 588.89265,606.7042 C 588.89263,606.92035 588.88588,607.24456 588.87239,607.67682 L 572.82407,607.67682 C 572.95915,610.04085 573.62783,611.85101 574.83011,613.10732 C 576.03237,614.36363 577.53184,614.99178 579.3285,614.99178 C 580.66585,614.99178 581.80733,614.64056 582.75295,613.9381 C 583.69855,613.23565 584.44828,612.11443 585.00215,610.57444 L 585.00215,610.57444 z M 573.0267,604.67789 L 585.04268,604.67789 C 584.88055,602.86775 584.42126,601.51012 583.66479,600.60503 C 582.50303,599.20014 580.99681,598.49769 579.14613,598.49767 C 577.47105,598.49769 576.06277,599.0583 574.92129,600.1795 C 573.7798,601.30074 573.14827,602.8002 573.0267,604.67789 L 573.0267,604.67789 z "
       id="text9245" />
    <g
       transform="matrix(1.2860886,1.4678123e-8,0,1.2860886,97.709912,72.120676)"
       id="g9249">
      <rect
         style="opacity:1;fill:#ffffff;fill-opacity:1;fill-rule:nonzero;stroke:#000000;stroke-width:1;stroke-linecap:round;stroke-linejoin:miter;stroke-miterlimit:4;stroke-dasharray:none;stroke-dashoffset:0;stroke-opacity:1"
         id="rect9251"
         width="50.363628"
         height="39.0909"
         x="5.818182"
         y="17.636364" />
      <rect
         style="opacity:1;fill:#000000;fill-opacity:1;fill-rule:nonzero;stroke:#000000;stroke-width:1.27579808;stroke-linecap:round;stroke-linejoin:miter;stroke-miterlimit:4;stroke-dasharray:none;stroke-dashoffset:0;stroke-opacity:1"
         id="rect9253"
         width="49.906021"
         height="5.9514751"
         x="6.1378989"
         y="18.501535"
         rx="1.0750588" />
      <rect
         style="opacity:1;fill:#ffffff;fill-opacity:1;fill-rule:nonzero;stroke:#000000;stroke-width:1;stroke-linecap:round;stroke-linejoin:miter;stroke-miterlimit:4;stroke-dasharray:none;stroke-dashoffset:0;stroke-opacity:1"
         id="rect9255"
         width="5.6363635"
         height="5.818182"
         x="50"
         y="18.181818"
         rx="1.0750588" />
      <rect
         style="opacity:1;fill:#bebebe;fill-opacity:1;fill-rule:nonzero;stroke:#000000;stroke-width:1;stroke-linecap:round;stroke-linejoin:miter;stroke-miterlimit:4;stroke-dasharray:none;stroke-dashoffset:0;stroke-opacity:1"
         id="rect9257"
         width="3.8181684"
         height="31.454542"
         x="52.363636"
         y="25.272728"
         rx="1.0750588" />
      <path
         style="font-size:4.91774893px;font-style:normal;font-weight:normal;text-align:center;text-anchor:middle;fill:#000000;fill-opacity:1;stroke:none;stroke-width:1px;stroke-linecap:butt;stroke-linejoin:miter;stroke-opacity:1;font-family:Arial"
         d="M 51.272016,22.942642 L 52.633522,21.108091 L 51.4329,19.422418 L 51.987587,19.422418 L 52.626318,20.325286 C 52.759186,20.512585 52.853635,20.65666 52.909665,20.75751 C 52.988104,20.629446 53.080952,20.495776 53.18821,20.356502 L 53.896577,19.422418 L 54.403239,19.422418 L 53.166598,21.081678 L 54.499289,22.942642 L 53.922991,22.942642 L 53.036931,21.686791 C 52.987304,21.614755 52.936077,21.536315 52.883252,21.451469 C 52.804809,21.579537 52.74878,21.667583 52.715164,21.715606 L 51.831506,22.942642 L 51.272016,22.942642 z "
         id="path9259" />
      <rect
         style="opacity:1;fill:#bebebe;fill-opacity:1;fill-rule:nonzero;stroke:#000000;stroke-width:1;stroke-linecap:round;stroke-linejoin:miter;stroke-miterlimit:4;stroke-dasharray:none;stroke-dashoffset:0;stroke-opacity:1"
         id="rect9261"
         width="16.363636"
         height="6.7272725"
         x="8.909091"
         y="47.272724"
         rx="1.0750588" />
      <rect
         style="opacity:1;fill:#ffffff;fill-opacity:1;fill-rule:nonzero;stroke:#808080;stroke-width:1;stroke-linecap:round;stroke-linejoin:miter;stroke-miterlimit:4;stroke-dasharray:none;stroke-dashoffset:0;stroke-opacity:1"
         id="rect9263"
         width="40.545452"
         height="7.2727275"
         x="8.727272"
         y="28.545454" />
    </g>
    <path
       style="fill:url(#linearGradient16237);fill-opacity:1;fill-rule:nonzero;stroke:#000000;stroke-width:3.39769554;stroke-linecap:round;stroke-linejoin:miter;stroke-miterlimit:4;stroke-dasharray:none;stroke-dashoffset:0;stroke-opacity:1"
       d="M 67.963981,520.31508 L 67.963981,599.60406 C 67.963981,600.14375 68.270786,600.60106 68.713906,600.83831 C 70.138992,608.54805 88.531672,614.66506 110.99095,614.66506 C 134.37862,614.66506 153.36172,608.04377 153.36173,599.88528 C 153.36173,599.0016 153.1324,598.13294 152.70554,597.29179 L 152.70554,520.31508"
       id="path10236"
       sodipodi:nodetypes="cccsscc" />
    <path
       sodipodi:type="arc"
       style="fill:url(#linearGradient16233);fill-opacity:1;fill-rule:nonzero;stroke:#000000;stroke-width:6.79606771;stroke-linecap:round;stroke-linejoin:miter;stroke-miterlimit:4;stroke-dasharray:none;stroke-dashoffset:0;stroke-opacity:1"
       id="path10234"
       sodipodi:cx="143.87175"
       sodipodi:cy="761.33392"
       sodipodi:rx="84.746376"
       sodipodi:ry="29.562689"
       d="M 228.61813 761.33392 A 84.746376 29.562689 0 1 1  59.125374,761.33392 A 84.746376 29.562689 0 1 1  228.61813 761.33392 z"
       transform="matrix(0.4999502,0,0,0.4999502,39.060608,139.25925)" />
    <text
       xml:space="preserve"
       style="font-size:20.15230751px;font-style:normal;font-weight:normal;text-align:start;text-anchor:start;fill:#000000;fill-opacity:1;stroke:none;stroke-width:1px;stroke-linecap:butt;stroke-linejoin:miter;stroke-opacity:1;font-family:Arial"
       x="659.87402"
       y="119.23407"
       id="text17211"><tspan
         sodipodi:role="line"
         id="tspan17213"
         x="659.87402"
         y="119.23407">Benutzeroberflchen, Datensichten,</tspan><tspan
         sodipodi:role="line"
         x="659.87402"
         y="144.42445"
         id="tspan17215">API und Schnittstellen</tspan></text>
    <text
       id="text17217"
       y="371.23407"
       x="659.87402"
       style="font-size:20.15230751px;font-style:normal;font-weight:normal;text-align:start;text-anchor:start;fill:#000000;fill-opacity:1;stroke:none;stroke-width:1px;stroke-linecap:butt;stroke-linejoin:miter;stroke-opacity:1;font-family:Arial"
       xml:space="preserve"><tspan
         y="371.23407"
         x="659.87402"
         sodipodi:role="line"
         id="tspan17229">Beziehungen, Daten</tspan></text>
    <text
       xml:space="preserve"
       style="font-size:20.15230751px;font-style:normal;font-weight:normal;text-align:start;text-anchor:start;fill:#000000;fill-opacity:1;stroke:none;stroke-width:1px;stroke-linecap:butt;stroke-linejoin:miter;stroke-opacity:1;font-family:Arial"
       x="659.87402"
       y="611.23407"
       id="text17225"><tspan
         sodipodi:role="line"
         x="659.87402"
         y="611.23407"
         id="tspan17227">Art und Form der Speicherung</tspan></text>
  </g>
</svg>
